<?xml version="1.0" encoding="UTF-8" standalone="no"?>
<!-- Created with Inkscape (http://www.inkscape.org/) -->

<svg
   width="92mm"
   height="103mm"
   viewBox="0 0 92 103"
   version="1.1"
   id="svg5"
   inkscape:version="1.1.1 (3bf5ae0d25, 2021-09-20)"
   sodipodi:docname="logo.svg"
   xmlns:inkscape="http://www.inkscape.org/namespaces/inkscape"
   xmlns:sodipodi="http://sodipodi.sourceforge.net/DTD/sodipodi-0.dtd"
   xmlns="http://www.w3.org/2000/svg"
   xmlns:svg="http://www.w3.org/2000/svg">
  <sodipodi:namedview
     id="namedview7"
     pagecolor="#ffffff"
     bordercolor="#666666"
     borderopacity="1.0"
     inkscape:pageshadow="2"
     inkscape:pageopacity="0.0"
     inkscape:pagecheckerboard="0"
     inkscape:document-units="mm"
     showgrid="false"
     inkscape:zoom="0.37104027"
     inkscape:cx="121.28064"
     inkscape:cy="636.04956"
     inkscape:window-width="1920"
     inkscape:window-height="1011"
     inkscape:window-x="0"
     inkscape:window-y="32"
     inkscape:window-maximized="1"
     inkscape:current-layer="layer1" />
  <defs
     id="defs2" />
  <g
     inkscape:label="Capa 1"
     inkscape:groupmode="layer"
     id="layer1">
    <path
       style="fill:#000000;stroke-width:0.264583"
       id="path21"
       d="" />
    <path
       style="fill:#d9e1e2;stroke-width:0.264583"
       d="m 25.854329,84.486451 c -0.32911,-0.41964 -0.31975,-0.429 0.0999,-0.0999 0.44073,0.34565 0.58088,0.56292 0.36312,0.56292 -0.0549,0 -0.2633,-0.20836 -0.46302,-0.46302 z m 19.8588,-21.85918 c -2.55082,-0.68778 -4.54937,-2.35303 -4.13135,-3.44238 0.24374,-0.63518 1.5085,-1.35625 1.88102,-1.07242 1.94954,1.48536 2.97424,1.96617 4.1903,1.96617 1.70423,0 2.31206,-0.34863 2.31206,-1.32613 0,-0.96832 -0.56614,-1.36192 -3.40085,-2.36434 -2.46074,-0.87018 -3.59053,-1.5974 -4.14377,-2.66725 -1.12774,-2.18082 0.36164,-5.071846 2.98877,-5.801471 3.1414,-0.872451 7.20168,0.610772 7.20168,2.630773 0,1.470559 -1.03415,1.700027 -2.69833,0.598728 -1.93225,-1.278702 -4.71,-0.897789 -4.71,0.645882 0,0.675254 1.01976,1.348336 3.08468,2.036018 2.56297,0.85355 3.84784,1.69639 4.41813,2.89818 0.57443,1.21051 0.54834,2.08958 -0.0997,3.35985 -0.63213,1.23907 -2.04745,2.24008 -3.69894,2.61613 -1.4681,0.33429 -1.68516,0.329 -3.19369,-0.0777 z M 1.1495393,62.408311 c -0.29105001,-0.16504 -0.61664001,-0.42931 -0.72356001,-0.58727 -0.10691,-0.15796 -0.19621,-4.17799 -0.19843,-8.933399 -0.003,-7.312954 0.0568,-8.70703 0.3904,-9.040662 0.53878001,-0.538779 3.10683001,-0.774607 7.21894001,-0.662924 2.9331497,0.07966 3.5266897,0.168318 4.0007697,0.59757 0.71028,0.643117 0.71069,1.523523 10e-4,2.165776 -0.48189,0.43611 -1.07894,0.51562 -4.4979097,0.599011 l -3.94226,0.09615 v 2.181458 2.181458 l 3.35339,0.186317 c 1.84437,0.102476 3.5707697,0.302657 3.8364597,0.444846 0.729,0.390147 0.65639,1.980619 -0.10912,2.390299 -0.3257,0.17431 -2.0520997,0.37317 -3.8364597,0.44191 l -3.24427,0.12498 -0.004,3.47001 c -0.002,1.9085 -0.0915,3.60101 -0.19844,3.76113 -0.17379,0.26028 -1.22177,0.91187 -1.43376,0.89146 -0.046,-0.004 -0.32167,-0.14308 -0.61271,-0.30812 z m 14.6664897,-0.45476 -0.77587,-0.77587 v -6.05965 c 0,-5.948901 0.0109,-6.069446 0.59531,-6.595577 1.00996,-0.909209 1.196,-0.916424 2.145,-0.0832 l 0.9199,0.807686 1.2644,-0.80186 c 2.08355,-1.321348 4.60039,-1.043027 4.60039,0.508725 0,1.454888 -0.18122,1.59983 -2.00023,1.59983 -3.43275,0 -3.86146,0.664189 -4.01336,6.217716 -0.11935,4.36321 -0.3132,5.20789 -1.29821,5.65669 -0.58335,0.26579 -0.75308,0.20976 -1.43733,-0.47449 z m 14.7512,0.50188 c -1.53933,-0.46205 -3.23038,-2.00461 -4.20088,-3.832 -0.86755,-1.63354 -0.80307,-5.081 0.12928,-6.911804 2.65842,-5.220237 9.31929,-5.478166 12.25168,-0.474421 0.43243,0.737875 0.73576,1.731671 0.82333,2.697415 0.20409,2.25075 0.16895,2.26607 -5.57894,2.43292 -4.60762,0.13375 -4.79322,0.16004 -4.71733,0.66839 0.0434,0.29104 0.53465,0.96613 1.09156,1.50021 1.30423,1.25074 2.88915,1.54768 4.71917,0.88413 0.68971,-0.25007 1.69749,-0.51412 2.23951,-0.58677 0.86824,-0.11637 1.02323,-0.0493 1.30272,0.56417 0.4476,0.98238 -0.34227,1.9689 -2.18048,2.72336 -1.50891,0.61931 -4.3854,0.7829 -5.87962,0.3344 z m 5.56685,-9.433383 c 0.0566,-0.170347 -0.24342,-0.697249 -0.66663,-1.170898 -0.67186,-0.751943 -0.97044,-0.875718 -2.35387,-0.975786 -1.09288,-0.07905 -1.82329,0.0098 -2.35443,0.286554 -0.81052,0.422257 -1.8067,1.83873 -1.50519,2.140243 0.32013,0.32013 6.76799,0.0576 6.88012,-0.280113 z m 24.96449,9.263953 c -0.84078,-0.5889 -6.10633,-11.901442 -6.10633,-13.118864 0,-0.585591 0.8862,-1.259332 1.65647,-1.259332 0.92732,0 1.3898,0.707869 3.37081,5.159375 0.90664,2.037291 1.73565,3.799191 1.84226,3.915331 0.1066,0.11613 0.77706,-1.07449 1.4899,-2.64584 1.89814,-4.184138 2.83202,-5.947065 3.30742,-6.243557 0.59882,-0.373464 1.76115,-0.0155 1.95739,0.602798 0.32779,1.032774 -5.12475,13.179999 -6.16634,13.737449 -0.68189,0.36493 -0.60881,0.3729 -1.35158,-0.14736 z m 14.1343,0.13457 c -0.85265,-0.31451 -2.42775,-1.40233 -2.99229,-2.06658 -0.19054,-0.22421 -0.65104,-1.04426 -1.02332,-1.82235 -0.60538,-1.26529 -0.66462,-1.65653 -0.56084,-3.70417 0.13444,-2.652532 0.68656,-3.972078 2.22846,-5.325877 3.65824,-3.21198 8.91692,-2.06893 10.92616,2.374961 0.6388,1.412836 0.72419,3.494766 0.16247,3.960946 -0.25632,0.21274 -2.00572,0.37157 -5.16847,0.46927 -2.62955,0.0812 -4.83427,0.23388 -4.89938,0.33922 -0.26765,0.43307 1.45048,2.31325 2.49622,2.73167 1.42993,0.57214 2.35821,0.55056 3.99036,-0.0928 1.53313,-0.60431 2.40061,-0.66856 2.8575,-0.21167 0.82191,0.82191 0.098,2.03176 -1.79917,3.00709 -1.10956,0.57041 -5.01442,0.7841 -6.2177,0.34026 z m 5.68854,-9.349216 c 0,-0.215987 -0.3345,-0.767064 -0.74332,-1.224618 -0.60228,-0.674071 -1.00117,-0.856695 -2.10232,-0.962501 -0.74745,-0.07182 -1.65957,-0.05514 -2.02694,0.03706 -0.81382,0.204255 -2.00659,1.438902 -2.00659,2.077034 0,0.420691 0.33257,0.465721 3.43958,0.465721 2.86477,0 3.43959,-0.0656 3.43959,-0.392696 z m 7.3715,9.147326 -0.62463,-0.50579 v -9.307169 -9.307171 l 0.62463,-0.505788 c 0.79437,-0.643247 1.22765,-0.637887 1.88891,0.02336 0.50928,0.509278 0.52917,0.881944 0.52917,9.915081 v 9.385917 l -0.78061,0.40367 c -0.96737,0.50024 -0.88743,0.50523 -1.63747,-0.10212 z M 52.416189,30.255446 c 0.40218,-0.06082 0.9975,-0.05919 1.32292,0.0036 0.32542,0.0628 -0.004,0.112559 -0.73124,0.110575 -0.72761,-0.0021 -0.99386,-0.05337 -0.59168,-0.114187 z m 14.23861,-5.256148 c 0.0127,-0.308224 0.0754,-0.370919 0.15985,-0.159852 0.0764,0.190996 0.067,0.419199 -0.0209,0.507118 -0.0879,0.08792 -0.15046,-0.06835 -0.13897,-0.347266 z m -41.03131,-3.649721 c 0,-0.05494 0.20836,-0.263301 0.46302,-0.463021 0.41965,-0.329107 0.42901,-0.319749 0.0999,0.09989 -0.34564,0.440729 -0.56291,0.580887 -0.56291,0.363126 z"
       id="path101" />
    <path
       style="fill:#3670c7;stroke-width:0.264583"
       d="m 44.392369,103.73277 c -0.81628,-0.097 -2.35837,-0.77368 -4.7625,-2.08972 C 29.321179,95.999941 6.0061493,82.654861 3.1339093,80.753441 l -1.45521,-0.96334 -0.0706,-6.81302 -0.0706,-6.81303 h 11.2492597 11.24926 v 7.88306 7.88306 l 0.85989,1.44351 c 1.16577,1.95697 2.57157,2.66724 5.30033,2.67794 2.21147,0.009 3.23108,-0.38297 4.49078,-1.72495 1.54557,-1.64654 1.60261,-1.99025 1.72997,-10.42355 l 0.11687,-7.73907 27.5516,-5.2e-4 27.55159,-5.3e-4 -0.13229,4.96137 -0.13229,4.96137 -0.94689,1.71979 c -0.61046,1.10875 -1.38314,2.04882 -2.17471,2.64584 -1.47511,1.11254 -12.55125,7.57144 -25.07816,14.62397 -15.76386,8.874909 -16.00679,8.986899 -18.78031,8.657239 z M 1.5464093,32.719992 V 25.73426 l 1.38906,-0.91857 C 5.2776093,23.266861 28.190089,10.076541 38.366459,4.4186794 c 4.59919,-2.55706 5.90696,-2.941511 8.67505,-2.550244 1.79543,0.253782 2.15912,0.442998 15.49136,8.059652 15.88908,9.0773666 25.64441,14.8463406 26.43935,15.6353406 0.447,0.443665 1.16992,1.455697 1.60648,2.248958 0.78965,1.434841 0.79443,1.4693 0.92604,6.668228 l 0.13229,5.225934 -27.58281,-5.3e-4 -27.58281,-2.96e-4 v -4.455369 -4.455366 l 7.34219,-0.174329 c 4.0382,-0.09588 9.78296,-0.17522 12.76614,-0.176316 3.00534,-0.0011 5.87474,-0.127164 6.43487,-0.282702 1.23178,-0.342045 3.04307,-1.92423 3.52745,-3.081274 0.19604,-0.468269 0.35643,-1.491339 0.35643,-2.27349 0,-1.935073 -0.84928,-3.503076 -2.50303,-4.62129 l -1.28224,-0.867011 -17.77345,0.07326 -17.77344,0.07326 -0.96552,0.73657 c -0.53103,0.405113 -1.2956,1.298082 -1.69902,1.984375 l -0.7335,1.247805 -0.0891,8.135938 -0.0891,8.135937 H 12.768249 1.5464193 Z"
       id="path89" />
  </g>
</svg>
